<svg xmlns="http://www.w3.org/2000/svg" width="30" height="30" viewBox="0 0 30 30">
    <path fill="#f26100" fill-rule="evenodd" d="M25.582 8.347l-10.125-4.5c-.292-.13-.623-.13-.915 0l-10.125 4.5c-.406.181-.667.584-.667 1.027v11.25c0 .445.261.847.668 1.028l10.125 4.5c.145.066.3.097.457.097.156 0 .312-.032.457-.097l10.125-4.5c.407-.18.668-.582.668-1.028V9.374c0-.443-.261-.846-.668-1.027zM15 6.106l7.355 3.268-2.011.895L12.988 7 15 6.106zm0 6.539l-7.355-3.27 2.574-1.145 7.355 3.27L15 12.644zm-9-1.538l7.875 3.5v8.788L6 19.895v-8.788zm10.125 12.287v-8.789l7.875-3.5v8.788l-7.875 3.5z"/>
</svg>
