<?xml version="1.0" encoding="UTF-8"?>
<svg width="24px" height="24px" viewBox="0 0 24 24" version="1.1" xmlns="http://www.w3.org/2000/svg" xmlns:xlink="http://www.w3.org/1999/xlink">
    <!-- Generator: Sketch 63.1 (92452) - https://sketch.com -->
    <title>az_locator</title>
    <desc>Created with Sketch.</desc>
    <g id="Symbols" stroke="none" stroke-width="1" fill="none" fill-rule="evenodd">
        <path d="M4.4808,15.3588 L5.1636,17.6592 C2.88,18.3384 2.4,19.0824 2.4,19.2 C2.4,19.818 5.7,21.6 12,21.6 C18.3,21.6 21.6,19.818 21.6,19.2 C21.6,19.0824 21.1224,18.3408 18.8532,17.6652 L19.5372,15.3648 C23.226,16.4628 24,18.0564 24,19.2 C24,22.4988 17.7792,24 12,24 C6.2208,24 0,22.4988 0,19.2 C0,18.0552 0.7776,16.4592 4.4808,15.3588 Z M12,0 C15.9708,0 19.2,3.2304 19.2,7.2 C19.2,12.438 13.1076,18.5892 12.8484,18.8484 L12,19.698 L11.1516,18.8484 C10.8924,18.5892 4.8,12.438 4.8,7.2 C4.8,3.2304 8.0292,0 12,0 Z M12,4.8 C10.6745166,4.8 9.6,5.87451659 9.6,7.2 C9.6,8.52548333 10.6745166,9.6 12,9.6 C13.3254834,9.6 14.4,8.52548333 14.4,7.2 C14.4,5.87451659 13.3254834,4.8 12,4.8 Z" id="az_locator" fill="#F26100" fill-rule="nonzero"></path>
    </g>
</svg>