<svg width="60" height="60" viewBox="0 0 60 60" fill="none" xmlns="http://www.w3.org/2000/svg">
<rect width="60" height="60" fill="white"/>
<path d="M40.5705 32.7707C39.2848 32.7707 38.0947 33.1692 37.0592 33.8196L33.8312 30.3745L31.3745 32.995L34.6043 36.4382C33.9945 37.5427 33.621 38.8103 33.621 40.1835C33.621 44.2736 36.7326 47.5964 40.5705 47.5964C41.8561 47.5964 43.0462 47.1979 44.08 46.5474L39.3422 41.4938L41.7988 38.8733L46.5366 43.927C47.1465 42.8244 47.52 41.5549 47.52 40.1835C47.52 36.088 44.4084 32.7707 40.5705 32.7707Z" fill="#F26100"/>
<path d="M18.9495 25.8256C20.2352 25.8256 21.4253 25.4272 22.459 24.7767L25.6888 28.2218L28.1455 25.6014L24.9157 22.1563C25.5255 21.0536 25.899 19.7842 25.899 18.4128C25.899 14.3172 22.7874 11 18.9495 11C17.6639 11 16.4737 11.3984 15.4383 12.0489L20.1778 17.1026L17.7212 19.723L12.9834 14.6675C12.3735 15.772 12 17.0396 12 18.4128C12 22.5028 15.1116 25.8256 18.9495 25.8256Z" fill="#F26100"/>
<path d="M26.9435 34.7873L40.7837 20.5277L42.1921 21.9788L47.52 14.6596L43.968 11L36.8641 16.4894L38.2725 17.9404L24.4323 32.2L20.36 28.0043L17.8487 30.5916L20.1451 32.9575L12.5208 40.8129C11.8264 41.5283 11.8264 42.6847 12.5208 43.4002L16.0728 47.0598C16.7654 47.7752 17.8896 47.7752 18.584 47.0598L26.2083 39.2045L28.5046 41.5704L31.0158 38.9831L26.9435 34.7873Z" fill="#F26100"/>
</svg>
