<svg width="60" height="60" viewBox="0 0 60 60" fill="none" xmlns="http://www.w3.org/2000/svg">
<rect width="60" height="60" fill="white"/>
<path fill-rule="evenodd" clip-rule="evenodd" d="M43.3501 37.5006L51.538 45.691C52.3198 46.4707 52.75 47.509 52.75 48.6134C52.75 49.72 52.3198 50.7582 51.538 51.538C50.7563 52.3198 49.718 52.75 48.6136 52.75C47.5072 52.75 46.471 52.3198 45.6872 51.538L37.5013 43.3497C34.3597 45.3869 30.7011 46.4873 26.8688 46.4873C21.628 46.4873 16.7016 44.4479 12.9975 40.7416C9.2913 37.0373 7.25 32.1086 7.25 26.8697C7.25 21.6287 9.2913 16.702 12.9975 12.9957C16.7016 9.28932 21.628 7.25 26.8688 7.25C32.1095 7.25 37.036 9.28932 40.7401 12.9957C44.4462 16.702 46.4875 21.6287 46.4875 26.8697C46.4875 30.7022 45.3852 34.3589 43.3501 37.5006ZM11.3864 26.8697C11.3864 31.0063 12.9975 34.8925 15.9219 37.815C18.8463 40.7416 22.7324 42.3507 26.8688 42.3507C31.0031 42.3507 34.8913 40.7416 37.8157 37.815C40.7401 34.8925 42.3512 31.0063 42.3512 26.8697C42.3512 22.7331 40.7401 18.8448 37.8157 15.9244C34.8913 12.9957 31.0031 11.3866 26.8688 11.3866C22.7324 11.3866 18.8463 12.9957 15.9219 15.9223C12.9975 18.8448 11.3864 22.7331 11.3864 26.8697ZM37.2095 29.0478V25.2877H34.1238C33.9562 24.6444 33.7039 24.0405 33.3813 23.4738L35.3295 21.5255L32.5106 18.7064L30.5603 20.6547C29.9977 20.33 29.3938 20.0797 28.7486 19.9122V16.8263H24.9886V19.9122C24.3433 20.0797 23.7394 20.33 23.1769 20.6547L21.2266 18.7064L18.4077 21.5255L20.3559 23.4738C20.0332 24.0405 19.7809 24.6444 19.6134 25.2877H16.5277V29.0478H19.6134C19.7809 29.6931 20.0332 30.297 20.3559 30.8617L18.4077 32.81L21.2266 35.629L23.1769 33.6828C23.7394 34.0034 24.3433 34.2557 24.9886 34.4253V37.5091H28.7486V34.4253C29.3938 34.2557 29.9977 34.0034 30.5603 33.6828L32.5106 35.629L35.3295 32.81L33.3813 30.8617C33.7039 30.297 33.9562 29.6931 34.1238 29.0478H37.2095ZM22.7322 27.1677C22.7322 29.4511 24.5832 31.3042 26.8685 31.3042C29.1539 31.3042 31.0049 29.4511 31.0049 27.1677C31.0049 24.8843 29.1539 23.0311 26.8685 23.0311C24.5832 23.0311 22.7322 24.8843 22.7322 27.1677Z" fill="#F26100"/>
</svg>
